<svg width="246" height="230" xmlns="http://www.w3.org/2000/svg">
 <g>
   <rect stroke-width="20" rx="50" id="svg_4" height="190" width="200" y="17" x="19" stroke="#559E84" fill="none"/>
   <line transform="rotate(41.6335 37 71.3333)" stroke="#559E84" stroke-width="20" stroke-linecap="undefined" stroke-linejoin="undefined" id="svg_5" y2="71.33333" x2="64" y1="71.33333" x1="10" fill="none"/>
   <line transform="rotate(41.6335 199.11 100.209)" stroke="#559E84" stroke-width="20" stroke-linecap="undefined" stroke-linejoin="undefined" id="svg_6" y2="100.20912" x2="223.28659" y1="100.20912" x1="174.93368" fill="none"/>
   <line stroke-linecap="undefined" stroke-linejoin="undefined" id="svg_7" y2="86.66667" x2="70" y1="86.66667" x1="51" stroke-width="20" stroke="#559E84" fill="none"/>
   <line stroke-linecap="undefined" stroke-linejoin="undefined" id="svg_8" y2="86.66667" x2="188" y1="86.66667" x1="169" stroke-width="20" stroke="#559E84" fill="none"/>
   <rect rx="3" id="svg_10" height="30" width="42" y="71.66667" x="59" stroke-width="16" stroke="#559E84" fill="none"/>
   <rect rx="3" id="svg_11" height="30" width="42" y="71.66667" x="137" stroke-width="16" stroke="#559E84" fill="none"/>
   <line stroke="#559E84" id="svg_13" y2="85.66667" x2="130" y1="85.66667" x1="109" stroke-width="16" fill="none"/>
   <line transform="rotate(41.6335 42 145.333)" stroke="#559E84" stroke-width="20" stroke-linecap="undefined" stroke-linejoin="undefined" id="svg_14" y2="145.33333" x2="69" y1="145.33333" x1="15" fill="none"/>
   <line stroke-linecap="undefined" stroke-linejoin="undefined" id="svg_15" y2="159.66667" x2="176" y1="160.66667" x1="56" stroke-width="20" stroke="#559E84" fill="none"/>
   <line transform="rotate(41.6335 202.189 187.057)" stroke="#559E84" stroke-width="20" stroke-linecap="undefined" stroke-linejoin="undefined" id="svg_16" y2="187.05739" x2="246.8366" y1="187.05739" x1="157.54227" fill="none"/>
 </g>
</svg>