<svg version="1.0" xmlns="http://www.w3.org/2000/svg" width="70.000000pt" height="70.000000pt" viewBox="0 0 291.000000 291.000000"  preserveAspectRatio="xMidYMid meet"><g transform="translate(0.000000,291.000000) scale(0.100000,-0.100000)" fill="#6aa84f" stroke="none"><path d="M590 2555 c-7 -8 -20 -15 -30 -15 -10 0 -23 -7 -30 -15 -7 -8 -20 -15 -29 -15 -21 0 -151 -130 -151 -152 0 -8 -7 -21 -15 -28 -8 -7 -15 -20 -15 -30 0 -10 -7 -23 -15 -30 -13 -11 -15 -113 -15 -810 0 -697 2 -799 15 -810 8 -7 15 -20 15 -30 0 -10 7 -23 15 -30 8 -7 15 -20 15 -29 0 -21 100 -121 122 -121 8 0 21 -7 28 -15 7 -8 27 -15 45 -15 18 0 38 -7 45 -15 11 -13 113 -15 810 -15 697 0 799 2 810 15 7 8 20 15 30 15 10 0 23 7 30 15 7 8 27 15 44 15 27 0 52 -20 181 -150 128 -129 154 -150 181 -150 39 0 74 36 74 76 0 25 -25 55 -165 194 -91 90 -165 167 -165 171 0 4 7 9 15 13 8 3 15 14 15 24 0 11 7 25 15 32 13 11 15 115 15 825 0 710 -2 814 -15 825 -8 7 -15 20 -15 30 0 10 -7 23 -15 30 -8 7 -15 20 -15 29 0 21 -100 121 -122 121 -8 0 -21 7 -28 15 -7 8 -27 15 -45 15 -18 0 -38 7 -45 15 -11 13 -112 15 -795 15 -683 0 -784 -2 -795 -15z m1560 -150 c7 -8 20 -15 30 -15 10 0 23 -7 30 -15 7 -8 19 -15 28 -15 21 0 62 -40 62 -61 0 -9 7 -22 15 -29 13 -11 15 -56 15 -291 0 -154 -4 -279 -9 -279 -4 0 -51 43 -102 96 l-94 95 -5 82 -5 82 -325 0 -325 0 -5 -85 -5 -85 -70 0 -70 0 -5 85 -5 85 -325 0 -325 0 -3 -57 c-2 -32 -7 -58 -11 -58 -4 0 -51 44 -104 98 -94 94 -97 98 -97 143 0 29 6 51 15 59 8 7 15 20 15 28 0 22 100 122 121 122 9 0 22 7 29 15 11 13 108 15 765 15 657 0 754 -2 765 -15z m-1599 -591 l94 -95 5 -82 5 -82 325 0 325 0 5 85 5 85 70 0 70 0 5 -85 5 -85 325 0 325 0 3 58 c2 31 7 57 11 57 4 0 51 -44 104 -97 l97 -98 0 -397 c0 -219 -4 -398 -8 -398 -5 0 -82 74 -172 165 l-164 165 -601 0 -600 0 -172 172 -173 173 0 277 c0 153 4 278 9 278 4 0 51 -43 102 -96z m604 -9 l0 -100 -175 0 -175 0 -3 89 c-2 49 0 96 2 103 5 11 40 13 178 11 l173 -3 0 -100z m810 0 l0 -100 -175 0 -175 0 -3 89 c-2 49 0 96 2 103 5 11 40 13 178 11 l173 -3 0 -100z m-1375 -810 l134 -135 601 0 600 0 143 -142 c78 -78 142 -143 142 -146 0 -2 -10 -12 -22 -23 -22 -18 -55 -18 -789 -19 -669 0 -768 2 -779 15 -7 8 -20 15 -30 15 -10 0 -23 7 -30 15 -7 8 -19 15 -28 15 -21 0 -62 40 -62 61 0 9 -7 22 -15 29 -12 10 -15 49 -15 231 0 121 4 219 8 219 5 0 69 -61 142 -135z"/></g></svg> 